<?xml version="1.0" encoding="UTF-8"?>
<svg version="1.1" xmlns="http://www.w3.org/2000/svg" width="272" height="159">
<path d="M0 0 C2.54360119 2.23808484 3.61286249 4.09256802 4.625 7.3125 C4.86476562 8.05113281 5.10453125 8.78976563 5.3515625 9.55078125 C10.69639332 29.73878681 7.30986851 53.47526164 -2 72 C-2.66 72.99 -3.32 73.98 -4 75 C-6.42342709 84.73279588 -3.634113 92.82051632 1.21875 101.27734375 C4.82520346 106.7898395 8.81135887 112.34576058 15 115 C14.505 116.485 14.505 116.485 14 118 C11.6239729 117.54655971 9.24928419 117.08740741 6.875 116.625 C6.20984375 116.49867188 5.5446875 116.37234375 4.859375 116.2421875 C0.781339 115.4425726 -3.08853085 114.40130515 -7 113 C-7 112.34 -7 111.68 -7 111 C-7.94875 110.814375 -8.8975 110.62875 -9.875 110.4375 C-23.41954322 106.55199467 -38.82093256 90.82434637 -46 79 C-46.35777149 77.67301528 -46.69452527 76.33999033 -47 75 C-39.91223562 70.00629654 -34.15743615 69.32287467 -25.625 69.625 C-24.54605469 69.63917969 -23.46710938 69.65335937 -22.35546875 69.66796875 C-14.55803571 69.8139881 -14.55803571 69.8139881 -11 71 C-12.0209375 70.13375 -12.0209375 70.13375 -13.0625 69.25 C-17.4004689 64.94921369 -20.09793617 59.3143587 -23 54 C-23.39574219 53.34644531 -23.79148437 52.69289062 -24.19921875 52.01953125 C-25.31450816 49.20682577 -25.19045583 46.76096795 -25.125 43.75 C-25.10695313 42.67234375 -25.08890625 41.5946875 -25.0703125 40.484375 C-25.04710938 39.66453125 -25.02390625 38.8446875 -25 38 C-18.25 34 -18.25 34 -16 34 C-16 33.34 -16 32.68 -16 32 C-15.34 32 -14.68 32 -14 32 C-14 31.34 -14 30.68 -14 30 C-13.34 30 -12.68 30 -12 30 C-12 29.34 -12 28.68 -12 28 C-11.34 28 -10.68 28 -10 28 C-9.34 26.02 -8.68 24.04 -8 22 C-7.34 22 -6.68 22 -6 22 C-3.73141173 14.72764611 -1.79354806 7.40315583 0 0 Z M-8 73 C-7.34 73.66 -6.68 74.32 -6 75 C-6 74.34 -6 73.68 -6 73 C-6.66 73 -7.32 73 -8 73 Z " fill="#0071B8" transform="translate(114,21)"/>
<path d="M0 0 C1.30710937 -0.00386719 1.30710937 -0.00386719 2.640625 -0.0078125 C4.75 0.125 4.75 0.125 5.75 1.125 C6.68899692 9.44182986 4.03038059 14.14483807 -0.25 21.125 C-0.96929687 22.48431641 -0.96929687 22.48431641 -1.703125 23.87109375 C-4.72514472 29.45850932 -7.99012226 34.03415015 -14.25 36.125 C-16.3046875 35.80078125 -16.3046875 35.80078125 -18.25 35.125 C-19.24 34.795 -20.23 34.465 -21.25 34.125 C-21.25 33.465 -21.25 32.805 -21.25 32.125 C-28.16383514 29.99379354 -34.54881576 29.88801986 -41.75 30 C-42.85859375 30.00902344 -43.9671875 30.01804687 -45.109375 30.02734375 C-47.82314592 30.05073833 -50.53645545 30.08351825 -53.25 30.125 C-53.25 30.785 -53.25 31.445 -53.25 32.125 C-54.013125 32.269375 -54.77625 32.41375 -55.5625 32.5625 C-58.33172908 33.0882594 -58.33172908 33.0882594 -61.25 34.125 C-61.25 32.805 -61.25 31.485 -61.25 30.125 C-60.59 30.125 -59.93 30.125 -59.25 30.125 C-59.14042969 29.52042969 -59.03085937 28.91585937 -58.91796875 28.29296875 C-56.35668073 19.98001641 -41.36228496 13.32696819 -33.9453125 9.35546875 C-23.54243554 4.33207462 -11.68738109 -0.03499216 0 0 Z " fill="#75BD20" transform="translate(82.25,58.875)"/>
<path d="M0 0 C2.54360119 2.23808484 3.61286249 4.09256802 4.625 7.3125 C4.98464844 8.42044922 4.98464844 8.42044922 5.3515625 9.55078125 C10.99716244 30.87482439 6.70604901 54.58790198 -3 74 C-7.94240646 73.55069032 -11.61681442 71.53570624 -15 68 C-17.95434021 63.4721525 -20.51270816 58.79732839 -23 54 C-23.40347656 53.32582031 -23.80695313 52.65164062 -24.22265625 51.95703125 C-25.32690614 49.17698505 -25.18967378 46.72499387 -25.125 43.75 C-25.10695313 42.67234375 -25.08890625 41.5946875 -25.0703125 40.484375 C-25.04710938 39.66453125 -25.02390625 38.8446875 -25 38 C-18.25 34 -18.25 34 -16 34 C-16 33.34 -16 32.68 -16 32 C-15.34 32 -14.68 32 -14 32 C-14 31.34 -14 30.68 -14 30 C-13.34 30 -12.68 30 -12 30 C-12 29.34 -12 28.68 -12 28 C-11.34 28 -10.68 28 -10 28 C-9.34 26.02 -8.68 24.04 -8 22 C-7.34 22 -6.68 22 -6 22 C-3.73141173 14.72764611 -1.79354806 7.40315583 0 0 Z " fill="#FAA517" transform="translate(114,21)"/>
<path d="M0 0 C3.37453898 -0.14611313 6.74825766 -0.23433467 10.125 -0.3125 C11.07632813 -0.35439453 12.02765625 -0.39628906 13.0078125 -0.43945312 C20.96923558 -0.57767228 20.96923558 -0.57767228 24.64453125 2.265625 C27.7703556 5.89427681 27.7703556 5.89427681 27.5625 9.0625 C27.0255166 12.82138382 26.63043554 14.36956446 24 17 C24.639375 17.61875 25.27875 18.2375 25.9375 18.875 C29.09593509 22.12914524 29.33427739 24.42134215 29.29296875 28.95703125 C28.83628915 32.14161032 27.29083221 33.84392262 25 36 C24.34 36 23.68 36 23 36 C22.67 36.66 22.34 37.32 22 38 C19.28974605 38.92452417 16.77404176 39.1281218 13.92578125 39.1328125 C13.17619141 39.13410156 12.42660156 39.13539062 11.65429688 39.13671875 C10.88150391 39.13285156 10.10871094 39.12898438 9.3125 39.125 C8.1359082 39.13080078 8.1359082 39.13080078 6.93554688 39.13671875 C1.12667749 39.12667749 1.12667749 39.12667749 0 38 C-0.08861992 35.1883662 -0.11522355 32.40141745 -0.09765625 29.58984375 C-0.0962413 28.74780899 -0.09482635 27.90577423 -0.09336853 27.03822327 C-0.08775263 24.33794665 -0.07519748 21.63775172 -0.0625 18.9375 C-0.05748705 17.11132932 -0.05292379 15.28515734 -0.04882812 13.45898438 C-0.03777804 8.97262458 -0.02050279 4.48632616 0 0 Z M7 6 C7 8.97 7 11.94 7 15 C8.60332791 15.08121924 10.20784026 15.13929134 11.8125 15.1875 C12.70582031 15.22230469 13.59914062 15.25710937 14.51953125 15.29296875 C17.03904497 15.20381372 17.03904497 15.20381372 18.8125 13.65625 C20.43567041 11.39235443 20.2202914 9.71692729 20 7 C17.35541621 5.67770811 15.32238699 5.90322806 12.375 5.9375 C10.87066406 5.95103516 10.87066406 5.95103516 9.3359375 5.96484375 C8.17964844 5.98224609 8.17964844 5.98224609 7 6 Z M7 21 C7 24.96 7 28.92 7 33 C9.35125 33.061875 9.35125 33.061875 11.75 33.125 C12.63171875 33.14820313 13.5134375 33.17140625 14.421875 33.1953125 C17.17835022 32.98648862 18.73683764 32.57859406 21 31 C22.08333333 27.58333333 22.08333333 27.58333333 22 24 C20.96393503 22.16051796 20.96393503 22.16051796 19 21 C16.02807238 20.63680691 16.02807238 20.63680691 12.8125 20.8125 C9.9353125 20.9053125 9.9353125 20.9053125 7 21 Z " fill="#0071B8" transform="translate(127,59)"/>
<path d="M0 0 C8.58 0 17.16 0 26 0 C26 1.98 26 3.96 26 6 C19.73 6 13.46 6 7 6 C7 8.64 7 11.28 7 14 C12.94 14 18.88 14 25 14 C25 15.98 25 17.96 25 20 C24 21 24 21 20.18359375 21.09765625 C18.60153318 21.09098089 17.01948841 21.07901875 15.4375 21.0625 C14.63119141 21.05798828 13.82488281 21.05347656 12.99414062 21.04882812 C10.99606244 21.03700518 8.99802217 21.01906914 7 21 C7 24.96 7 28.92 7 33 C13.27 33 19.54 33 26 33 C26 34.98 26 36.96 26 39 C17.42 39 8.84 39 0 39 C0 26.13 0 13.26 0 0 Z " fill="#0171B8" transform="translate(160,59)"/>
<path d="M0 0 C0 2.31 0 4.62 0 7 C-3 7 -3 7 -5.75 5.5 C-9.49101302 3.77337861 -11.92347702 3.61542236 -16 4 C-16.99 4.66 -17.98 5.32 -19 6 C-19.2502157 9.08365871 -19.2502157 9.08365871 -19 12 C-18.13117188 12.17015625 -17.26234375 12.3403125 -16.3671875 12.515625 C-4.67487826 14.97441039 -4.67487826 14.97441039 0 19 C1.73803322 22.47606644 1.44789348 26.1994921 1 30 C-0.9753414 33.9506828 -3.24402552 35.31112442 -7.25 36.8125 C-14.60171788 38.92159939 -20.15952128 38.42023936 -27 35 C-27 32.36 -27 29.72 -27 27 C-26.360625 27.28875 -25.72125 27.5775 -25.0625 27.875 C-18.64987358 30.23065868 -13.51009671 32.00466002 -7 29 C-6.67 27.02 -6.34 25.04 -6 23 C-11.29012667 21.42421759 -16.60204011 20.15058556 -22 19 C-22 18.34 -22 17.68 -22 17 C-22.99 17 -23.98 17 -25 17 C-28 10.88 -28 10.88 -28 7.4375 C-26.26889387 3.21792881 -23.6801442 0.05609064 -19.8125 -2.375 C-12.56023269 -3.98661496 -6.56501513 -3.42522529 0 0 Z " fill="#0271B7" transform="translate(216,61)"/>
<path d="M0 0 C11.22 0 22.44 0 34 0 C34 1.98 34 3.96 34 6 C29.38 6 24.76 6 20 6 C20 16.89 20 27.78 20 39 C18.02 39 16.04 39 14 39 C13 38 13 38 12.88647461 34.94897461 C12.88663366 33.60008729 12.89232388 32.25119386 12.90234375 30.90234375 C12.9037587 30.19348526 12.90517365 29.48462677 12.90663147 28.75428772 C12.91224557 26.48198288 12.92480037 24.20977525 12.9375 21.9375 C12.94251319 20.40039204 12.94707641 18.86328255 12.95117188 17.32617188 C12.96221958 13.55074358 12.97949359 9.77538829 13 6 C8.71 6 4.42 6 0 6 C0 4.02 0 2.04 0 0 Z " fill="#0071B8" transform="translate(217,59)"/>
<path d="M0 0 C2.3431213 0.25561323 4.67843403 0.59270772 7 1 C7.33 1.66 7.66 2.32 8 3 C8.66 2.01 9.32 1.02 10 0 C10.99 0 11.98 0 13 0 C13.66 1.98 14.32 3.96 15 6 C15.33 4.02 15.66 2.04 16 0 C16.99 0.33 17.98 0.66 19 1 C19 3.64 19 6.28 19 9 C20.32 9 21.64 9 23 9 C23 6.03 23 3.06 23 0 C23.99 0 24.98 0 26 0 C26.66 0.99 27.32 1.98 28 3 C28.66 2.01 29.32 1.02 30 0 C30.99 0 31.98 0 33 0 C33.495 1.98 33.495 1.98 34 4 C34.66 2.68 35.32 1.36 36 0 C36.99 0 37.98 0 39 0 C39.66 2.64 40.32 5.28 41 8 C42.32 8 43.64 8 45 8 C44.01 7.67 43.02 7.34 42 7 C41.375 4.625 41.375 4.625 41 2 C43 0 43 0 45.625 -0.125 C46.40875 -0.08375 47.1925 -0.0425 48 0 C48.495 1.98 48.495 1.98 49 4 C47.68 4 46.36 4 45 4 C45.9590625 4.4021875 45.9590625 4.4021875 46.9375 4.8125 C49 6 49 6 50 9 C49.34 9.99 48.68 10.98 48 12 C45.8359375 12.29296875 45.8359375 12.29296875 43.375 12.1875 C42.55773437 12.16042969 41.74046875 12.13335937 40.8984375 12.10546875 C40.27195313 12.07066406 39.64546875 12.03585938 39 12 C39 11.01 39 10.02 39 9 C36.00667261 9.9977758 35.05233685 10.7522025 33 13 C32.01 12.67 31.02 12.34 30 12 C29.67 11.01 29.34 10.02 29 9 C28.01 9 27.02 9 26 9 C25.67 9.99 25.34 10.98 25 12 C21.04 12 17.08 12 13 12 C13 11.01 13 10.02 13 9 C9.88214887 9.64644661 9.88214887 9.64644661 9 12 C8.01 12 7.02 12 6 12 C6 10.68 6 9.36 6 8 C5.01 8 4.02 8 3 8 C3 9.32 3 10.64 3 12 C2.01 12 1.02 12 0 12 C0 8.04 0 4.08 0 0 Z M3 3 C3 3.66 3 4.32 3 5 C3.66 4.67 4.32 4.34 5 4 C4.34 3.67 3.68 3.34 3 3 Z M7 5 C8 7 8 7 8 7 Z " fill="#0271B7" transform="translate(201,101)"/>
<path d="M0 0 C0.99 0 1.98 0 3 0 C3 2.97 3 5.94 3 9 C4.32 9 5.64 9 7 9 C7.99 6.03 8.98 3.06 10 0 C10.99 0 11.98 0 13 0 C13.66 2.64 14.32 5.28 15 8 C16.32 8 17.64 8 19 8 C18.01 7.67 17.02 7.34 16 7 C15.67 5.35 15.34 3.7 15 2 C18 0 18 0 20.6875 0.375 C21.450625 0.58125 22.21375 0.7875 23 1 C23 1.99 23 2.98 23 4 C21.68 4 20.36 4 19 4 C20.65 4.99 22.3 5.98 24 7 C23.34 8.65 22.68 10.3 22 12 C16.71502591 13.05699482 16.71502591 13.05699482 14 13 C11.5 11.0625 11.5 11.0625 10 9 C9.67 9.99 9.34 10.98 9 12 C2.84765625 12.09765625 2.84765625 12.09765625 1 12 C0 11 0 11 -0.09765625 8.49609375 C-0.08605469 7.48675781 -0.07445312 6.47742188 -0.0625 5.4375 C-0.05347656 4.42558594 -0.04445312 3.41367188 -0.03515625 2.37109375 C-0.02355469 1.58863281 -0.01195312 0.80617188 0 0 Z " fill="#0572B5" transform="translate(173,101)"/>
<path d="M0 0 C2.9375 0.5 2.9375 0.5 4.8125 1.625 C6.48413625 4.41106042 6.40126624 6.31988862 5.9375 9.5 C4.3125 11.4375 4.3125 11.4375 1.9375 12.5 C-1.125 12.5625 -1.125 12.5625 -4.0625 11.5 C-5.9375 8.4375 -5.9375 8.4375 -7.0625 5.5 C-3.9015411 0.6369863 -3.9015411 0.6369863 0 0 Z " fill="#0071B8" transform="translate(88.0625,77.5)"/>
</svg>
