<?xml version="1.0" encoding="UTF-8"?>
<svg version="1.1" xmlns="http://www.w3.org/2000/svg" width="1810" height="1059">
<path d="M0 0 C1.26652405 -0.02435623 2.5330481 -0.04871246 3.83795166 -0.07380676 C5.23467698 -0.08551691 6.63140571 -0.09682541 8.02813721 -0.10777283 C9.50555025 -0.12985976 10.98294721 -0.15304586 12.46032715 -0.17724609 C17.31253878 -0.25061256 22.16480054 -0.29174297 27.01739502 -0.33018494 C28.69742155 -0.34496637 30.37744729 -0.35983843 32.05747223 -0.37479973 C39.06265398 -0.4349563 46.0678112 -0.48687018 53.0731926 -0.51679325 C63.05207287 -0.55960533 73.0278031 -0.64965872 83.0055263 -0.80895907 C90.05054936 -0.917506 97.0947468 -0.97050094 104.14058423 -0.98427862 C108.33176444 -0.9938264 112.51966187 -1.02551014 116.70992279 -1.11694527 C138.01728353 -1.55905575 152.43636613 0.28747126 170.36174202 12.82469368 C173.49207698 14.9882356 176.73500025 16.82683581 180.06036377 18.67372131 C181.92760903 19.76514817 183.79359786 20.85872889 185.65802002 21.95497131 C186.60612549 22.50926819 187.55423096 23.06356506 188.53106689 23.63465881 C194.61939126 27.19978071 200.67781878 30.81310983 206.72052002 34.45497131 C206.60458496 35.00096985 206.4886499 35.54696838 206.36920166 36.10951233 C196.5311937 83.42143169 205.39689888 129.36763873 226.72052002 172.45497131 C227.17298096 173.37230042 227.62544189 174.28962952 228.09161377 175.23475647 C240.53279403 200.23090828 255.66540177 223.14297534 273.72052002 244.45497131 C274.54938721 245.46817444 275.37825439 246.48137756 276.23223877 247.52528381 C288.20688439 262.01719285 301.58993282 276.23257331 316.72052002 287.45497131 C317.30140381 287.8909967 317.8822876 288.32702209 318.48077393 288.77626038 C325.27535787 293.87176533 332.11336543 298.86551369 339.27911377 303.43153381 C339.75477783 303.76926819 340.23044189 304.10700256 340.72052002 304.45497131 C340.72052002 304.78497131 340.72052002 305.11497131 340.72052002 305.45497131 C295.51434899 304.72583952 248.63457671 289.6964137 207.72052002 271.45497131 C206.60967041 270.96126038 205.4988208 270.46754944 204.35430908 269.95887756 C172.86725603 255.87094643 143.13286561 239.00762337 114.72052002 219.45497131 C114.01234131 218.96818909 113.3041626 218.48140686 112.57452393 217.97987366 C98.18814302 208.04976994 84.28199504 197.48374302 70.72052002 186.45497131 C69.88907471 185.78594788 69.05762939 185.11692444 68.20098877 184.42762756 C52.61103879 171.80501799 37.52962827 158.50264985 23.47833252 144.17762756 C21.60717953 142.34389763 19.65414795 140.65130056 17.65802002 138.95497131 C14.33599846 136.09648765 11.52911216 133.02873228 8.70098877 129.68934631 C6.31591546 126.99849438 3.78037114 124.47724109 1.22052002 121.95497131 C-3.16314195 117.61766227 -7.29122761 113.15656963 -11.27947998 108.45497131 C-12.16920771 107.42815148 -13.0599191 106.40218355 -13.95135498 105.37684631 C-30.11453095 86.73955143 -44.89427015 67.18602375 -58.27947998 46.45497131 C-58.93432373 45.44950256 -59.58916748 44.44403381 -60.26385498 43.40809631 C-60.82588623 42.51606506 -61.38791748 41.62403381 -61.96697998 40.70497131 C-62.44522217 39.94700256 -62.92346436 39.18903381 -63.41619873 38.40809631 C-64.27947998 36.45497131 -64.27947998 36.45497131 -63.27947998 33.45497131 C-61.1918335 31.97547913 -61.1918335 31.97547913 -58.40838623 30.40809631 C-56.85220581 29.52202698 -56.85220581 29.52202698 -55.2645874 28.61805725 C-54.13512695 27.98673889 -53.0056665 27.35542053 -51.84197998 26.70497131 C-50.67647698 26.04480032 -49.51152615 25.3836536 -48.34710693 24.72157288 C-45.90839736 23.33593818 -43.46731172 21.95462615 -41.02459717 20.57606506 C-34.98168111 17.16031552 -28.97669103 13.6786741 -22.96697998 10.20497131 C-21.87135742 9.57365295 -20.77573486 8.94233459 -19.64691162 8.29188538 C-18.62202637 7.70117249 -17.59714111 7.11045959 -16.54119873 6.50184631 C-15.6436084 5.98460999 -14.74601807 5.46737366 -13.82122803 4.9344635 C-11.28626099 3.50249698 -11.28626099 3.50249698 -9.01308823 1.89093876 C-5.77623661 0.19061701 -3.64389933 0.05114099 0 0 Z " fill="#0071B9" transform="translate(515.2794799804688,611.5450286865234)"/>
<path d="M0 0 C0.92373413 0.00140991 1.84746826 0.00281982 2.79919434 0.00427246 C5.06014669 0.00792741 7.32108553 0.01304947 9.58203125 0.01953125 C9.81595657 8.70468489 9.99251132 17.38871996 10.10015297 26.0763607 C10.15187424 30.11260278 10.22175155 34.14665744 10.33642578 38.18164062 C11.26304863 71.68200511 11.26304863 71.68200511 0.83477783 85.34368896 C-0.98382286 87.77649379 -2.42116596 90.39091123 -3.89453125 93.04296875 C-4.94241165 94.82776254 -5.99190263 96.61161168 -7.04296875 98.39453125 C-12.22812736 107.23574405 -17.34485894 116.11376811 -22.41796875 125.01953125 C-27.95244854 134.73212595 -33.54137112 144.41096355 -39.18603516 154.06005859 C-42.91855173 160.44269386 -46.63272593 166.83553948 -50.328125 173.23974609 C-51.6214784 175.48093726 -52.91699513 177.72088162 -54.21484375 179.95947266 C-56.84747971 184.50884014 -59.46479551 189.05640765 -61.9296875 193.69921875 C-62.28627441 194.36099121 -62.64286133 195.02276367 -63.01025391 195.70458984 C-63.89178747 197.35363878 -64.75181861 199.01413722 -65.609375 200.67578125 C-67.93300162 203.68696046 -69.833253 203.86395886 -73.41796875 205.01953125 C-75.25460222 205.96404746 -77.0644699 206.96199463 -78.84765625 208.00390625 C-79.87930908 208.60332031 -80.91096191 209.20273437 -81.97387695 209.8203125 C-83.06917725 210.46355469 -84.16447754 211.10679687 -85.29296875 211.76953125 C-86.42887451 212.42824219 -87.56478027 213.08695313 -88.73510742 213.765625 C-94.61807604 217.17909907 -100.46753083 220.64292847 -106.2890625 224.16015625 C-107.37268066 224.80887695 -108.45629883 225.45759766 -109.57275391 226.12597656 C-111.64384343 227.36792572 -113.70765486 228.622111 -115.76318359 229.88964844 C-116.69727051 230.44813477 -117.63135742 231.00662109 -118.59375 231.58203125 C-119.8144519 232.32646484 -119.8144519 232.32646484 -121.05981445 233.0859375 C-123.98077724 234.24234724 -125.46310506 233.99040622 -128.41796875 233.01953125 C-130.6796875 231.15625 -130.6796875 231.15625 -133.10546875 228.70703125 C-144.85328379 217.66976954 -158.83296941 209.69792568 -173.41796875 203.01953125 C-174.54203125 202.4884375 -175.66609375 201.95734375 -176.82421875 201.41015625 C-243.81979982 171.04300034 -330.53839207 178.50349485 -397.84375 203.2578125 C-406.16621573 206.41424481 -414.55289047 209.71452981 -422.2421875 214.2265625 C-425.41796875 216.01953125 -425.41796875 216.01953125 -427.41796875 216.01953125 C-425.69340907 212.18403513 -423.3001369 208.85613415 -420.85546875 205.45703125 C-420.41146729 204.83860352 -419.96746582 204.22017578 -419.51000977 203.58300781 C-413.41145932 195.16538192 -406.76559448 187.27143602 -399.75390625 179.6015625 C-398.46653219 178.17856208 -397.18586012 176.74902469 -395.9362793 175.29272461 C-391.03617267 169.5877488 -385.80874608 164.26132533 -380.48046875 158.95703125 C-379.1975293 157.66829102 -379.1975293 157.66829102 -377.88867188 156.35351562 C-372.89397313 151.36643656 -367.78912384 146.59697761 -362.41796875 142.01953125 C-361.45375 141.17390625 -360.48953125 140.32828125 -359.49609375 139.45703125 C-349.84761203 131.14121275 -339.68004535 123.55774974 -329.41796875 116.01953125 C-328.43280273 115.2937085 -328.43280273 115.2937085 -327.42773438 114.55322266 C-257.14034187 62.93948065 -172.93505586 29.42940351 -24.41796875 1.01953125 C-22.46697266 0.82230469 -22.46697266 0.82230469 -20.4765625 0.62109375 C-13.64614315 0.0354031 -6.84965579 -0.01997522 0 0 Z " fill="#75BF1E" transform="translate(567.41796875,395.98046875)"/>
<path d="M0 0 C24.32884667 30.67001475 31.01323939 84.35682757 36.1875 122 C36.3424292 123.11221924 36.4973584 124.22443848 36.65698242 125.37036133 C39.39736822 146.40285966 40.33269047 167.43378746 40.26074219 188.63085938 C40.25002567 192.36605116 40.26071617 196.10076011 40.2734375 199.8359375 C40.28697934 222.169993 38.92718864 244.38864226 36.25 266.5625 C36.16729858 267.25313538 36.08459717 267.94377075 35.99938965 268.65533447 C27.08371916 342.45358233 8.20534284 421.52848396 -30 486 C-33.9714117 485.40482565 -36.87478558 484.16709342 -40.359375 482.19140625 C-41.38450195 481.61406738 -42.40962891 481.03672852 -43.46582031 480.44189453 C-44.54959961 479.82169434 -45.63337891 479.20149414 -46.75 478.5625 C-47.86729492 477.92940918 -48.98458984 477.29631836 -50.13574219 476.64404297 C-58.52239275 471.87906506 -66.87495682 467.05981485 -75.14501953 462.09521484 C-76.98596761 461.00828499 -78.84588098 459.96365312 -80.71484375 458.92578125 C-81.87250797 458.26321672 -83.03006615 457.60046688 -84.1875 456.9375 C-85.17105469 456.38964844 -86.15460938 455.84179688 -87.16796875 455.27734375 C-94.3826969 449.47570719 -98.35736947 439.97765285 -102.75 432 C-106.74175824 424.81107379 -110.73998644 417.63363437 -114.9375 410.5625 C-119.07317969 403.59230165 -123.14121067 396.58498988 -127.1875 389.5625 C-128.14450806 387.90166382 -128.14450806 387.90166382 -129.12084961 386.20727539 C-130.42889477 383.93662932 -131.73675448 381.66587642 -133.04443359 379.39501953 C-136.19332051 373.92830024 -139.34679599 368.46422995 -142.5 363 C-146.04121575 356.86289106 -149.58215111 350.72562239 -153.12011719 344.5866394 C-154.49806938 342.19573403 -155.87634172 339.80501328 -157.25463867 337.41430664 C-158.22540982 335.73016037 -159.19571874 334.04574769 -160.16601562 332.36132812 C-160.75576172 331.33845703 -161.34550781 330.31558594 -161.953125 329.26171875 C-162.72897949 327.91533325 -162.72897949 327.91533325 -163.52050781 326.54174805 C-164.94736407 324.00627873 -164.94736407 324.00627873 -166.57691956 321.76101685 C-168.33341551 318.35311751 -168.32795762 316.10413604 -168.2487793 312.28198242 C-168.23946381 311.62776306 -168.23014832 310.9735437 -168.22055054 310.29949951 C-168.18635149 308.15094569 -168.13043264 306.00354969 -168.07421875 303.85546875 C-168.04616722 302.36048298 -168.01947877 300.86547107 -167.99409485 299.37043762 C-167.92381126 295.44593231 -167.83506717 291.5220553 -167.74243164 287.59802246 C-167.65108781 283.58965232 -167.57726504 279.58096336 -167.50195312 275.57226562 C-167.35175077 267.71442686 -167.18203827 259.8571654 -167 252 C-166.46861923 251.80889648 -165.93723846 251.61779297 -165.38975525 251.42089844 C-162.93403163 250.53492886 -160.48070033 249.64250223 -158.02734375 248.75 C-156.77407288 248.29947266 -156.77407288 248.29947266 -155.4954834 247.83984375 C-147.32088226 244.85644164 -139.64319613 241.14137513 -132 237 C-130.93136719 236.42378906 -129.86273437 235.84757813 -128.76171875 235.25390625 C-106.61748051 222.81751824 -86.40172376 204.13032316 -71 184 C-70.33436035 183.14897705 -70.33436035 183.14897705 -69.65527344 182.28076172 C-37.95764978 141.74252294 -14.56337249 91.72273979 -5 41 C-4.77908691 39.83839355 -4.77908691 39.83839355 -4.55371094 38.65332031 C-2.19161054 25.85993089 -1.02578624 12.95952915 0 0 Z " fill="#FFA615" transform="translate(762,144)"/>
<path d="M0 0 C114.50922509 0 114.50922509 0 132 6 C132.91523437 6.29777344 133.83046875 6.59554688 134.7734375 6.90234375 C146.80400165 11.21483828 157.45679135 19.63532396 163.375 31 C170.16918571 45.76676676 170.84903145 62.78722485 165.375 78.1875 C158.65662073 93.34117769 146.71063085 102.68119027 133 111 C134.00417969 111.32871094 135.00835938 111.65742188 136.04296875 111.99609375 C152.83419811 117.73421515 166.28810767 126.73902368 174.875 142.75 C182.71735329 159.075933 183.57457677 178.95263282 178.32421875 196.25 C170.96019584 217.10387019 156.74009061 231.38907283 137 241 C95.57404337 259.15463112 40.10911117 251 0 251 C0 168.17 0 85.34 0 0 Z M36 29 C36 53.09 36 77.18 36 102 C42.373125 102.020625 48.74625 102.04125 55.3125 102.0625 C57.28001221 102.071604 59.24752441 102.08070801 61.2746582 102.09008789 C70.01059736 102.11381358 78.723165 102.01029374 87.44921875 101.5703125 C88.21712234 101.53289444 88.98502594 101.49547638 89.77619934 101.45692444 C102.08843924 100.75918492 114.19875363 97.4535733 122.9375 88.25 C130.09635442 79.27138882 131.85084925 68.20830261 131 57 C129.80084613 48.49799907 126.6821961 42.48028294 120 37 C110.8016275 31.3848741 100.54988018 29.78169818 89.9375 29.375 C89.05497559 29.33705322 88.17245117 29.29910645 87.26318359 29.26000977 C70.19619475 28.64619945 53.06840903 28.94422089 36 29 Z M36 130 C36 160.03 36 190.06 36 221 C44.889375 221.061875 53.77875 221.12375 62.9375 221.1875 C65.70632568 221.21481201 68.47515137 221.24212402 71.32788086 221.27026367 C94.15348701 221.40108621 115.63246158 220.45517992 133.10546875 204.01953125 C142.68187284 193.78972645 143.46723941 182.7303449 143.2734375 169.3671875 C142.94013753 159.9390883 140.78231297 151.59589267 133.98046875 144.70703125 C118.16130648 131.07197422 100.32211254 129.81643736 80.23828125 129.90234375 C79.10918335 129.90335083 77.98008545 129.90435791 76.81677246 129.90539551 C72.64867113 129.91057884 68.48058441 129.92453961 64.3125 129.9375 C54.969375 129.958125 45.62625 129.97875 36 130 Z " fill="#0071B9" transform="translate(853,396)"/>
<path d="M0 0 C55.11 0 110.22 0 167 0 C167 10.23 167 20.46 167 31 C123.77 31 80.54 31 36 31 C36 53.11 36 75.22 36 98 C76.59 98 117.18 98 159 98 C159 108.23 159 118.46 159 129 C118.41 129 77.82 129 36 129 C36 159.03 36 189.06 36 220 C79.23 220 122.46 220 167 220 C167 230.23 167 240.46 167 251 C111.89 251 56.78 251 0 251 C0 168.17 0 85.34 0 0 Z " fill="#0071B9" transform="translate(1068,396)"/>
<path d="M0 0 C0.72104919 0.00215515 1.44209839 0.0043103 2.18499756 0.00653076 C22.48865521 0.10340951 62.55293209 0.80293209 78.0625 16.3125 C78.15121273 19.34227804 78.1776935 22.34917022 78.16015625 25.37890625 C78.15803383 26.74184059 78.15803383 26.74184059 78.15586853 28.13230896 C78.15025193 31.04657221 78.13769665 33.96075981 78.125 36.875 C78.11998714 38.84570202 78.11542386 40.81640524 78.11132812 42.78710938 C78.10027711 47.62893559 78.08300138 52.47070495 78.0625 57.3125 C73.48245733 56.5479582 70.98904031 55.04828049 67.25 52.25 C43.92303612 35.50252226 14.05774315 26.95178041 -14.5078125 31.58984375 C-26.91462111 34.20403463 -38.89516185 39.08846374 -46.9375 49.3125 C-52.74842567 58.91470034 -53.44207254 69.68993671 -51.2890625 80.59765625 C-48.25755761 89.80876727 -42.48567795 96.25043169 -33.99829102 100.8581543 C-19.42960793 107.78051572 -2.47386391 110.37612171 13.14575195 113.93212891 C38.2831569 119.6757742 65.46283442 125.96118945 80.375 149.125 C89.2407263 164.88629119 90.79932231 184.9388595 86.5 202.375 C80.85075867 220.08772541 71.05186767 234.55457762 55.0625 244.3125 C54.15419434 244.8691333 54.15419434 244.8691333 53.22753906 245.43701172 C37.82089095 254.6985689 21.18625613 259.39845635 3.1796875 259.515625 C2.08729012 259.52621445 2.08729012 259.52621445 0.9728241 259.53701782 C-32.047483 259.78402902 -63.04035324 255.26107338 -92.9375 240.3125 C-92.9375 226.1225 -92.9375 211.9325 -92.9375 197.3125 C-88.01493158 198.29701368 -87.15569333 198.64983438 -83.6875 201.75 C-59.50546788 221.76395526 -26.80993929 231.51827742 4.3125 228.625 C18.07672209 227.15881113 32.47715448 222.94960413 42.0625 212.3125 C48.63694185 202.45955665 51.42440168 191.97143264 49.4375 180.125 C46.87494574 169.73991167 42.02884415 162.54206609 32.875 156.984375 C20.46707946 150.70087678 5.9916847 148.17506714 -7.4765625 145.140625 C-8.32222778 144.94921936 -9.16789307 144.75781372 -10.03918457 144.56060791 C-14.28204662 143.60177751 -18.52712 142.65651876 -22.77832031 141.73535156 C-44.98275934 136.83480053 -68.60292852 128.94739528 -81.48046875 108.80078125 C-81.96128906 107.97964844 -82.44210937 107.15851563 -82.9375 106.3125 C-83.40800781 105.52230469 -83.87851563 104.73210937 -84.36328125 103.91796875 C-92.27070654 89.47933674 -93.34543098 70.64877748 -89.8125 54.6875 C-83.85563402 35.40387805 -70.32048229 21.06750694 -52.9375 11.3125 C-36.12872702 2.52887628 -18.77021668 -0.1014489 0 0 Z " fill="#0071B9" transform="translate(1352.9375,391.6875)"/>
<path d="M0 0 C70.95 0 141.9 0 215 0 C215 10.23 215 20.46 215 31 C185.63 31 156.26 31 126 31 C126 103.6 126 176.2 126 251 C113.79 251 101.58 251 89 251 C89 178.4 89 105.8 89 31 C59.63 31 30.26 31 0 31 C0 20.77 0 10.54 0 0 Z " fill="#0071B9" transform="translate(1449,396)"/>
<path d="M0 0 C9.14359933 9.57900883 11.22041862 19.64499874 10.9375 32.38671875 C10.67499871 37.54377543 9.50591745 41.44651773 6.625 45.75 C6.18929687 46.44222656 5.75359375 47.13445313 5.3046875 47.84765625 C-0.02295755 55.63533412 -7.4940748 61.13229904 -16.734375 63.3046875 C-28.02142144 65.20812433 -38.75769703 63.33631023 -48.1875 56.6875 C-54.68168014 51.19696588 -60.08181626 43.22753787 -61.375 34.75 C-62.12276664 23.45041526 -61.48574723 13.61442231 -54.09765625 4.62890625 C-38.93304575 -11.91117913 -18.14202263 -13.19419828 0 0 Z " fill="#0071B9" transform="translate(611.375,530.25)"/>
<path d="M0 0 C3.3 0 6.6 0 10 0 C10 19.47 10 38.94 10 59 C19.82803025 58.96040272 19.82803025 58.96040272 29.65600586 58.90991211 C31.47950562 58.90616577 31.47950562 58.90616577 33.33984375 58.90234375 C34.59144287 58.89710693 35.84304199 58.89187012 37.13256836 58.88647461 C40 59 40 59 41 60 C47.6 40.2 54.2 20.4 61 0 C65.29 0 69.58 0 74 0 C76.87165915 8.43931743 79.74076082 16.87949228 82.60533142 25.32121849 C83.93547461 29.24073635 85.26674842 33.15986265 86.60058594 37.078125 C87.88703876 40.85732582 89.17054791 44.63751439 90.45199585 48.41841507 C90.94215522 49.86290919 91.433386 51.30704019 91.9256897 52.7508049 C92.61343025 54.76831198 93.29739837 56.78706015 93.98046875 58.80615234 C94.37129639 59.95642914 94.76212402 61.10670593 95.16479492 62.2918396 C96 65 96 65 96 67 C92.37 67 88.74 67 85 67 C84.16320723 64.37605694 83.33043058 61.75095616 82.5 59.125 C82.14228516 58.00544922 82.14228516 58.00544922 81.77734375 56.86328125 C80 51.2265625 80 51.2265625 80 49 C67.625 49.495 67.625 49.495 55 50 C53.39609513 55.21952809 53.39609513 55.21952809 51.79907227 60.44116211 C50.11111111 65.88888889 50.11111111 65.88888889 49 67 C47.4651703 67.09319449 45.92607918 67.117458 44.38842773 67.11352539 C43.3937146 67.11340454 42.39900146 67.11328369 41.37414551 67.11315918 C40.32126343 67.10804321 39.26838135 67.10292725 38.18359375 67.09765625 C37.22134888 67.09664917 36.259104 67.09564209 35.2677002 67.09460449 C31.65762142 67.0893546 28.04755957 67.07539348 24.4375 67.0625 C16.373125 67.041875 8.30875 67.02125 0 67 C0 44.89 0 22.78 0 0 Z M67 11 C65.71248643 14.78834888 64.43090931 18.57864846 63.15478516 22.37084961 C62.71988772 23.66046159 62.28337578 24.94953029 61.84521484 26.23803711 C61.21547426 28.0908453 60.59202743 29.94578889 59.96875 31.80078125 C59.59169922 32.91622314 59.21464844 34.03166504 58.82617188 35.1809082 C57.8593826 37.99020971 57.8593826 37.99020971 58 41 C64.27 41 70.54 41 77 41 C74.36090799 30.88348065 71.18730854 20.95389236 68 11 C67.67 11 67.34 11 67 11 Z " fill="#0071B9" transform="translate(1159,680)"/>
<path d="M0 0 C4.62 0 9.24 0 14 0 C18.95 11.22 23.9 22.44 29 34 C31.67091158 30.43878456 33.17387653 27.60560478 34.8828125 23.5546875 C35.14254852 22.94360138 35.40228455 22.33251526 35.66989136 21.70291138 C36.493435 19.7624167 37.30940347 17.81884642 38.125 15.875 C38.94941852 13.92475747 39.77535236 11.97516231 40.60153198 10.02566528 C41.34764702 8.26277507 42.09017265 6.49836699 42.83251953 4.73388672 C43.51410182 3.1378268 44.22386062 1.55227876 45 0 C49.62 0 54.24 0 59 0 C59 22.11 59 44.22 59 67 C55.7 67 52.4 67 49 67 C48.67 49.51 48.34 32.02 48 14 C40.575 31.325 40.575 31.325 33 49 C30.69 49 28.38 49 26 49 C20.32352134 38.24808159 15.81342754 27.23133093 11 16 C10.67 32.83 10.34 49.66 10 67 C6.7 67 3.4 67 0 67 C0 44.89 0 22.78 0 0 Z " fill="#0071B9" transform="translate(1493,680)"/>
<path d="M0 0 C4.29 0 8.58 0 13 0 C15.87165915 8.43931743 18.74076082 16.87949228 21.60533142 25.32121849 C22.93547461 29.24073635 24.26674842 33.15986265 25.60058594 37.078125 C26.88703876 40.85732582 28.17054791 44.63751439 29.45199585 48.41841507 C29.94215522 49.86290919 30.433386 51.30704019 30.9256897 52.7508049 C31.61343025 54.76831198 32.29739837 56.78706015 32.98046875 58.80615234 C33.37129639 59.95642914 33.76212402 61.10670593 34.16479492 62.2918396 C35 65 35 65 35 67 C31.37 67 27.74 67 24 67 C23.16320723 64.37605694 22.33043058 61.75095616 21.5 59.125 C21.26152344 58.37863281 21.02304688 57.63226562 20.77734375 56.86328125 C19 51.2265625 19 51.2265625 19 49 C6.625 49.495 6.625 49.495 -6 50 C-7.60390487 55.21952809 -7.60390487 55.21952809 -9.20092773 60.44116211 C-10.88888889 65.88888889 -10.88888889 65.88888889 -12 67 C-13.68608966 67.07205511 -15.37500659 67.08386068 -17.0625 67.0625 C-18.44115234 67.04896484 -18.44115234 67.04896484 -19.84765625 67.03515625 C-20.55792969 67.02355469 -21.26820312 67.01195312 -22 67 C-14.77739033 44.62898578 -7.47858277 22.28683847 0 0 Z M6 11 C4.71248643 14.78834888 3.43090931 18.57864846 2.15478516 22.37084961 C1.71988772 23.66046159 1.28337578 24.94953029 0.84521484 26.23803711 C0.21547426 28.0908453 -0.40797257 29.94578889 -1.03125 31.80078125 C-1.40830078 32.91622314 -1.78535156 34.03166504 -2.17382812 35.1809082 C-3.1406174 37.99020971 -3.1406174 37.99020971 -3 41 C3.27 41 9.54 41 16 41 C13.36090799 30.88348065 10.18730854 20.95389236 7 11 C6.67 11 6.34 11 6 11 Z " fill="#0071B9" transform="translate(1579,680)"/>
<path d="M0 0 C4.29 0 8.58 0 13 0 C15.87165915 8.43931743 18.74076082 16.87949228 21.60533142 25.32121849 C22.93547461 29.24073635 24.26674842 33.15986265 25.60058594 37.078125 C26.88703876 40.85732582 28.17054791 44.63751439 29.45199585 48.41841507 C29.94215522 49.86290919 30.433386 51.30704019 30.9256897 52.7508049 C31.61343025 54.76831198 32.29739837 56.78706015 32.98046875 58.80615234 C33.37129639 59.95642914 33.76212402 61.10670593 34.16479492 62.2918396 C35 65 35 65 35 67 C31.37 67 27.74 67 24 67 C23.16320723 64.37605694 22.33043058 61.75095616 21.5 59.125 C21.26152344 58.37863281 21.02304688 57.63226562 20.77734375 56.86328125 C19 51.2265625 19 51.2265625 19 49 C6.625 49.495 6.625 49.495 -6 50 C-7.60390487 55.21952809 -7.60390487 55.21952809 -9.20092773 60.44116211 C-10.88888889 65.88888889 -10.88888889 65.88888889 -12 67 C-13.68608966 67.07205511 -15.37500659 67.08386068 -17.0625 67.0625 C-18.44115234 67.04896484 -18.44115234 67.04896484 -19.84765625 67.03515625 C-20.55792969 67.02355469 -21.26820312 67.01195312 -22 67 C-14.77739033 44.62898578 -7.47858277 22.28683847 0 0 Z M6 11 C4.71248643 14.78834888 3.43090931 18.57864846 2.15478516 22.37084961 C1.71988772 23.66046159 1.28337578 24.94953029 0.84521484 26.23803711 C0.21547426 28.0908453 -0.40797257 29.94578889 -1.03125 31.80078125 C-1.40830078 32.91622314 -1.78535156 34.03166504 -2.17382812 35.1809082 C-3.1406174 37.99020971 -3.1406174 37.99020971 -3 41 C3.27 41 9.54 41 16 41 C13.36090799 30.88348065 10.18730854 20.95389236 7 11 C6.67 11 6.34 11 6 11 Z " fill="#0071B9" transform="translate(1406,680)"/>
<path d="M0 0 C1 1 1 1 1.09765625 3.50390625 C1.08605469 4.51324219 1.07445312 5.52257812 1.0625 6.5625 C1.05347656 7.57441406 1.04445313 8.58632813 1.03515625 9.62890625 C1.02355469 10.41136719 1.01195312 11.19382812 1 12 C-1.87518089 11.39336843 -4.03841294 10.482833 -6.5625 9 C-12.0123971 6.22421286 -18.1647372 5.10282245 -24.1875 6.51171875 C-27.56171893 7.84031745 -28.96697906 8.95046858 -31 12 C-31.56799794 16.08530564 -31.56799794 16.08530564 -31 20 C-27.03388527 24.21693622 -22.60981556 25.15389752 -17.1875 26.4375 C-3.04477064 30.09888762 -3.04477064 30.09888762 2 36.5625 C3.70330907 42.41762493 4.26993722 48.56270326 2.12109375 54.37890625 C-0.81184985 59.48009859 -5.1038667 63.61549705 -10.71484375 65.609375 C-21.36382301 67.42971334 -32.16175231 66.50316852 -42 62 C-43 61 -43 61 -43.09765625 58.49609375 C-43.08605469 57.48675781 -43.07445312 56.47742188 -43.0625 55.4375 C-43.05347656 54.42558594 -43.04445313 53.41367187 -43.03515625 52.37109375 C-43.02355469 51.58863281 -43.01195312 50.80617188 -43 50 C-39.86872842 51.21650446 -36.87726444 52.56136778 -33.875 54.0625 C-27.29330241 56.97553088 -20.35993788 58.12018254 -13.4375 55.75 C-9.82108684 54.26228426 -9.82108684 54.26228426 -8 51 C-7.31166348 45.63482857 -7.31166348 45.63482857 -9.40625 40.93359375 C-13.21636298 38.09322338 -17.32028904 37.19618672 -21.875 36 C-29.34535715 34.02095342 -34.87000386 32.21236446 -40.375 26.5625 C-43.07283101 20.64802434 -43.13803137 14.04712407 -41.375 7.77734375 C-38.97451869 2.90136609 -34.70257481 0.33680309 -30 -2 C-21.03937326 -4.98687558 -8.54468874 -3.81741881 0 0 Z " fill="#0071B9" transform="translate(1659,682)"/>
<path d="M0 0 C1 1 1 1 1.09765625 3.50390625 C1.08605469 4.51324219 1.07445312 5.52257812 1.0625 6.5625 C1.05347656 7.57441406 1.04445313 8.58632813 1.03515625 9.62890625 C1.02355469 10.41136719 1.01195312 11.19382812 1 12 C-1.87518089 11.39336843 -4.03841294 10.482833 -6.5625 9 C-12.0123971 6.22421286 -18.1647372 5.10282245 -24.1875 6.51171875 C-27.56171893 7.84031745 -28.96697906 8.95046858 -31 12 C-31.56799794 16.08530564 -31.56799794 16.08530564 -31 20 C-27.03388527 24.21693622 -22.60981556 25.15389752 -17.1875 26.4375 C-3.04477064 30.09888762 -3.04477064 30.09888762 2 36.5625 C3.70330907 42.41762493 4.26993722 48.56270326 2.12109375 54.37890625 C-0.81184985 59.48009859 -5.1038667 63.61549705 -10.71484375 65.609375 C-21.36382301 67.42971334 -32.16175231 66.50316852 -42 62 C-43 61 -43 61 -43.09765625 58.49609375 C-43.08605469 57.48675781 -43.07445312 56.47742188 -43.0625 55.4375 C-43.05347656 54.42558594 -43.04445313 53.41367187 -43.03515625 52.37109375 C-43.02355469 51.58863281 -43.01195312 50.80617188 -43 50 C-39.86872842 51.21650446 -36.87726444 52.56136778 -33.875 54.0625 C-27.29330241 56.97553088 -20.35993788 58.12018254 -13.4375 55.75 C-9.82108684 54.26228426 -9.82108684 54.26228426 -8 51 C-7.31166348 45.63482857 -7.31166348 45.63482857 -9.40625 40.93359375 C-13.21636298 38.09322338 -17.32028904 37.19618672 -21.875 36 C-29.34535715 34.02095342 -34.87000386 32.21236446 -40.375 26.5625 C-43.07283101 20.64802434 -43.13803137 14.04712407 -41.375 7.77734375 C-38.97451869 2.90136609 -34.70257481 0.33680309 -30 -2 C-21.03937326 -4.98687558 -8.54468874 -3.81741881 0 0 Z " fill="#0071B9" transform="translate(1300,682)"/>
<path d="M0 0 C31.53663366 0 31.53663366 0 37.27734375 4.97265625 C37.82519531 5.66230469 38.37304688 6.35195313 38.9375 7.0625 C39.50339844 7.75472656 40.06929687 8.44695313 40.65234375 9.16015625 C43.27193214 12.73646388 43.19415708 15.33840942 43.25 19.75 C43.27578125 20.96171875 43.3015625 22.1734375 43.328125 23.421875 C42.79714246 29.21211322 40.55229016 32.99645264 36.1875 36.75 C35.54167969 37.32234375 34.89585938 37.8946875 34.23046875 38.484375 C28.92574302 42.08898723 23.79569022 42.26891909 17.625 42.125 C13.850625 42.063125 13.850625 42.063125 10 42 C10 50.25 10 58.5 10 67 C6.7 67 3.4 67 0 67 C0 44.89 0 22.78 0 0 Z M10 8 C10 16.58 10 25.16 10 34 C20.09409721 34.39533586 20.09409721 34.39533586 29 31 C32.20962574 27.62989298 33.24812206 24.99014563 33.4375 20.4375 C33.22022783 16.52001689 32.76995445 13.9430766 30 11 C22.84014708 7.22480482 18.81423206 8 10 8 Z " fill="#0071B9" transform="translate(1340,680)"/>
<path d="M0 0 C3.3 0 6.6 0 10 0 C10 19.47 10 38.94 10 59 C19.9 59 29.8 59 40 59 C40 61.64 40 64.28 40 67 C26.8 67 13.6 67 0 67 C0 44.89 0 22.78 0 0 Z " fill="#0071B9" transform="translate(1447,680)"/>
</svg>
